<?xml version="1.0" encoding="UTF-8" standalone="no"?>
<svg width="94px" height="76px" viewBox="0 0 94 76" version="1.1" xmlns="http://www.w3.org/2000/svg" xmlns:xlink="http://www.w3.org/1999/xlink">
    <!-- Generator: Sketch 39.1 (31720) - http://www.bohemiancoding.com/sketch -->
    <title>Fill 1</title>
    <desc>Created with Sketch.</desc>
    <defs></defs>
    <g id="Welcome" stroke="none" stroke-width="1" fill="none" fill-rule="evenodd">
        <g id="Desktop-HD" transform="translate(-1018.000000, -1394.000000)" fill="#5AA8DF">
            <path d="M1111.53586,1402.99698 C1108.09549,1404.52278 1104.39498,1405.5546 1100.51324,1406.01936 C1104.47682,1403.64296 1107.51966,1399.88399 1108.95193,1395.40304 C1105.24557,1397.60113 1101.13584,1399.19709 1096.76596,1400.05937 C1093.26421,1396.32963 1088.27758,1394 1082.75897,1394 C1072.16019,1394 1063.5695,1402.59068 1063.5695,1413.18947 C1063.5695,1414.69189 1063.73903,1416.15631 1064.06641,1417.56227 C1048.11562,1416.76137 1033.97709,1409.12066 1024.51243,1397.51052 C1022.86094,1400.34582 1021.91389,1403.64296 1021.91389,1407.15933 C1021.91389,1413.81499 1025.30164,1419.69021 1030.44904,1423.13057 C1027.30389,1423.03119 1024.34582,1422.16891 1021.75897,1420.73079 C1021.75605,1420.81264 1021.75605,1420.89156 1021.75605,1420.9734 C1021.75605,1430.27145 1028.37079,1438.02616 1037.15147,1439.78873 C1035.5409,1440.22718 1033.84556,1440.46101 1032.09468,1440.46101 C1030.85826,1440.46101 1029.65691,1440.34117 1028.48479,1440.11902 C1030.92549,1447.7422 1038.01375,1453.29004 1046.41152,1453.44496 C1039.84355,1458.59236 1031.56855,1461.65858 1022.57741,1461.65858 C1021.02822,1461.65858 1019.50242,1461.56797 1018,1461.39259 C1026.4913,1466.8352 1036.57856,1470.0125 1047.41703,1470.0125 C1082.71512,1470.0125 1102.01566,1440.77085 1102.01566,1415.41387 C1102.01566,1414.58081 1101.99812,1413.7536 1101.96012,1412.92932 C1105.71033,1410.22555 1108.96362,1406.84657 1111.53586,1402.99698" id="Fill-1"></path>
        </g>
    </g>
</svg>